<svg width="1200" height="900" viewBox="0 0 1200 900" fill="none" xmlns="http://www.w3.org/2000/svg">
  <defs>
    <linearGradient id="bg" x1="0" y1="0" x2="1" y2="1">
      <stop offset="0%" stop-color="#EEF7F2" />
      <stop offset="100%" stop-color="#F8F1E9" />
    </linearGradient>
  </defs>
  <rect width="1200" height="900" rx="48" fill="url(#bg)" />
  <ellipse cx="360" cy="690" rx="320" ry="100" fill="#F0E3D9" />
  <ellipse cx="820" cy="760" rx="260" ry="80" fill="#E2D7CA" />
  <path d="M325 520C325 420 405 360 500 360C595 360 675 430 675 530C675 600 615 700 500 700C395 700 325 640 325 520Z" fill="#2F5D50" opacity="0.9" />
  <circle cx="460" cy="470" r="18" fill="#F8F1E9" />
  <path d="M560 320C550 270 610 240 650 260C670 270 700 300 690 350C680 420 640 490 590 520C540 540 490 520 450 480" stroke="#2F5D50" stroke-width="28" stroke-linecap="round" />
  <path d="M310 475C300 430 240 380 180 390C140 400 120 450 130 500C145 560 190 620 250 650C300 670 340 660 360 620" stroke="#2F5D50" stroke-width="28" stroke-linecap="round" fill="none" />
  <circle cx="655" cy="330" r="34" fill="#F8F1E9" />
  <path d="M565 360C570 325 600 300 635 300C680 300 715 345 700 385C685 435 640 460 600 455" stroke="#2F5D50" stroke-width="26" stroke-linecap="round" fill="none" />
  <path d="M485 605C435 615 385 590 355 560" stroke="#fff" stroke-width="16" stroke-linecap="round" />
</svg>
